<?xml version="1.0" encoding="UTF-8" standalone="no"?>
<svg xmlns="http://www.w3.org/2000/svg" viewBox="0 0 500 200" width="500" height="200">
  <g>
    <!-- 'g' letter -->
    <path d="M120,165c-25,0-45-20-45-45c0-25,20-45,45-45c15,0,28,7,37,18v-13c-10-8-23-13-37-13c-33,0-60,27-60,60s27,60,60,60c14,0,27-5,37-13v-36H120V165z" fill="#bcd7d0"/>
    
    <!-- 'r' letter with leaf -->
    <path d="M210,165h-15V80h15v10c5-7,13-12,25-12v16c-15,0-25,8-25,25V165z" fill="#e7cab7"/>
    <path d="M235,70c0,8-6,15-15,15s-15-6-15-15s6-15,15-15S235,62,235,70z" fill="#e7cab7"/>
    
    <!-- 'o' letter -->
    <path d="M290,165c-25,0-45-20-45-45s20-45,45-45s45,20,45,45S315,165,290,165z M290,90c-16,0-30,13-30,30s13,30,30,30s30-13,30-30S306,90,290,90z" fill="#cfd86f"/>
  </g>
  
  <!-- "Early Learning" text -->
  <text x="155" y="190" font-family="Arial, sans-serif" font-size="24" font-weight="bold" fill="#7356ff">Early Learning</text>
</svg>